<?xml version="1.0" encoding="UTF-8" standalone="no"?>
<!DOCTYPE svg PUBLIC "-//W3C//DTD SVG 1.1//EN"
 "http://www.w3.org/Graphics/SVG/1.1/DTD/svg11.dtd">
<!-- Generated by graphviz version 2.43.0 (0)
 -->
<!-- Title: main.cpp Pages: 1 -->
<svg width="1384pt" height="420pt"
 viewBox="0.00 0.00 1383.50 420.00" xmlns="http://www.w3.org/2000/svg" xmlns:xlink="http://www.w3.org/1999/xlink">
<g id="graph0" class="graph" transform="scale(1 1) rotate(0) translate(4 416)">
<title>main.cpp</title>
<polygon fill="white" stroke="transparent" points="-4,4 -4,-416 1379.5,-416 1379.5,4 -4,4"/>
<!-- Node1 -->
<g id="node1" class="node">
<title>Node1</title>
<g id="a_node1"><a xlink:title="validates args, spins up parser ServerManager, and enters main event loop.">
<polygon fill="#bfbfbf" stroke="black" points="431,-392.5 431,-411.5 493,-411.5 493,-392.5 431,-392.5"/>
<text text-anchor="middle" x="462" y="-399.5" font-family="Helvetica,sans-Serif" font-size="10.00">main.cpp</text>
</a>
</g>
</g>
<!-- Node2 -->
<g id="node2" class="node">
<title>Node2</title>
<g id="a_node2"><a xlink:title=" ">
<polygon fill="white" stroke="#bfbfbf" points="486,-112.5 486,-131.5 546,-131.5 546,-112.5 486,-112.5"/>
<text text-anchor="middle" x="516" y="-119.5" font-family="Helvetica,sans-Serif" font-size="10.00">iostream</text>
</a>
</g>
</g>
<!-- Node1&#45;&gt;Node2 -->
<g id="edge1" class="edge">
<title>Node1&#45;&gt;Node2</title>
<path fill="none" stroke="midnightblue" d="M430.98,-400.26C394.8,-397.81 335.1,-388.66 297,-356 272.98,-335.41 268,-322.63 268,-291 268,-291 268,-291 268,-233 268,-143.4 404.95,-126.22 475.31,-123.31"/>
<polygon fill="midnightblue" stroke="midnightblue" points="475.71,-126.8 485.59,-122.97 475.48,-119.8 475.71,-126.8"/>
</g>
<!-- Node3 -->
<g id="node3" class="node">
<title>Node3</title>
<g id="a_node3"><a xlink:title=" ">
<polygon fill="white" stroke="#bfbfbf" points="306.5,-336.5 306.5,-355.5 355.5,-355.5 355.5,-336.5 306.5,-336.5"/>
<text text-anchor="middle" x="331" y="-343.5" font-family="Helvetica,sans-Serif" font-size="10.00">cstdlib</text>
</a>
</g>
</g>
<!-- Node1&#45;&gt;Node3 -->
<g id="edge2" class="edge">
<title>Node1&#45;&gt;Node3</title>
<path fill="none" stroke="midnightblue" d="M441.24,-392.44C419.68,-383.56 385.74,-369.56 361.21,-359.45"/>
<polygon fill="midnightblue" stroke="midnightblue" points="362.24,-356.09 351.66,-355.52 359.57,-362.56 362.24,-356.09"/>
</g>
<!-- Node4 -->
<g id="node4" class="node">
<title>Node4</title>
<g id="a_node4"><a xlink:title=" ">
<polygon fill="white" stroke="#bfbfbf" points="373.5,-336.5 373.5,-355.5 424.5,-355.5 424.5,-336.5 373.5,-336.5"/>
<text text-anchor="middle" x="399" y="-343.5" font-family="Helvetica,sans-Serif" font-size="10.00">csignal</text>
</a>
</g>
</g>
<!-- Node1&#45;&gt;Node4 -->
<g id="edge3" class="edge">
<title>Node1&#45;&gt;Node4</title>
<path fill="none" stroke="midnightblue" d="M451.88,-392.32C442.47,-384.26 428.26,-372.08 416.93,-362.37"/>
<polygon fill="midnightblue" stroke="midnightblue" points="419.18,-359.68 409.31,-355.83 414.62,-365 419.18,-359.68"/>
</g>
<!-- Node5 -->
<g id="node5" class="node">
<title>Node5</title>
<g id="a_node5"><a xlink:href="ServerManager_8hpp.html" target="_top" xlink:title="Owns the event loop and all listening sockets. Accepts new connections, dispatches I/O events,...">
<polygon fill="white" stroke="black" points="443,-336.5 443,-355.5 607,-355.5 607,-336.5 443,-336.5"/>
<text text-anchor="middle" x="525" y="-343.5" font-family="Helvetica,sans-Serif" font-size="10.00">../includes/ServerManager.hpp</text>
</a>
</g>
</g>
<!-- Node1&#45;&gt;Node5 -->
<g id="edge4" class="edge">
<title>Node1&#45;&gt;Node5</title>
<path fill="none" stroke="midnightblue" d="M472.12,-392.32C481.53,-384.26 495.74,-372.08 507.07,-362.37"/>
<polygon fill="midnightblue" stroke="midnightblue" points="509.38,-365 514.69,-355.83 504.82,-359.68 509.38,-365"/>
</g>
<!-- Node33 -->
<g id="node33" class="node">
<title>Node33</title>
<g id="a_node33"><a xlink:href="FatalExceptions_8hpp.html" target="_top" xlink:title="This class will be used to collect fatal exceptions, which are exceptions that should cause the progr...">
<polygon fill="white" stroke="black" points="1208.5,-168.5 1208.5,-187.5 1375.5,-187.5 1375.5,-168.5 1208.5,-168.5"/>
<text text-anchor="middle" x="1292" y="-175.5" font-family="Helvetica,sans-Serif" font-size="10.00">../includes/FatalExceptions.hpp</text>
</a>
</g>
</g>
<!-- Node1&#45;&gt;Node33 -->
<g id="edge66" class="edge">
<title>Node1&#45;&gt;Node33</title>
<path fill="none" stroke="midnightblue" d="M493.11,-401.09C575.39,-400.74 805.14,-395.95 991,-356 1130.55,-326 1211.69,-362 1292,-244 1301.12,-230.6 1300.01,-211.78 1297.27,-197.84"/>
<polygon fill="midnightblue" stroke="midnightblue" points="1300.63,-196.81 1294.9,-187.9 1293.82,-198.44 1300.63,-196.81"/>
</g>
<!-- Node35 -->
<g id="node35" class="node">
<title>Node35</title>
<g id="a_node35"><a xlink:href="ConfigParser_8hpp.html" target="_top" xlink:title="Parses a webserv.conf file and produces a vector of ServerConf objects.">
<polygon fill="white" stroke="black" points="1133,-224.5 1133,-243.5 1283,-243.5 1283,-224.5 1133,-224.5"/>
<text text-anchor="middle" x="1208" y="-231.5" font-family="Helvetica,sans-Serif" font-size="10.00">../includes/ConfigParser.hpp</text>
</a>
</g>
</g>
<!-- Node1&#45;&gt;Node35 -->
<g id="edge69" class="edge">
<title>Node1&#45;&gt;Node35</title>
<path fill="none" stroke="midnightblue" d="M493.17,-401.35C589.99,-401.39 892.61,-393.5 1119,-300 1147.01,-288.43 1174.43,-266.3 1191.27,-251.1"/>
<polygon fill="midnightblue" stroke="midnightblue" points="1194.1,-253.24 1199.05,-243.87 1189.34,-248.11 1194.1,-253.24"/>
</g>
<!-- Node6 -->
<g id="node6" class="node">
<title>Node6</title>
<g id="a_node6"><a xlink:title=" ">
<polygon fill="white" stroke="#bfbfbf" points="425,-56.5 425,-75.5 463,-75.5 463,-56.5 425,-56.5"/>
<text text-anchor="middle" x="444" y="-63.5" font-family="Helvetica,sans-Serif" font-size="10.00">map</text>
</a>
</g>
</g>
<!-- Node5&#45;&gt;Node6 -->
<g id="edge5" class="edge">
<title>Node5&#45;&gt;Node6</title>
<path fill="none" stroke="midnightblue" d="M472.08,-336.48C428.36,-328.5 370.72,-315.49 353,-300 332.74,-282.29 335.21,-270.4 330,-244 320.72,-196.96 341.61,-131.63 357,-112 371.57,-93.43 395.91,-81.76 415.15,-74.98"/>
<polygon fill="midnightblue" stroke="midnightblue" points="416.25,-78.3 424.67,-71.87 414.08,-71.65 416.25,-78.3"/>
</g>
<!-- Node7 -->
<g id="node7" class="node">
<title>Node7</title>
<g id="a_node7"><a xlink:title=" ">
<polygon fill="white" stroke="#bfbfbf" points="66,-56.5 66,-75.5 98,-75.5 98,-56.5 66,-56.5"/>
<text text-anchor="middle" x="82" y="-63.5" font-family="Helvetica,sans-Serif" font-size="10.00">set</text>
</a>
</g>
</g>
<!-- Node5&#45;&gt;Node7 -->
<g id="edge6" class="edge">
<title>Node5&#45;&gt;Node7</title>
<path fill="none" stroke="midnightblue" d="M442.76,-336.95C320.04,-324.85 102.97,-303.05 100,-300 42.77,-241.12 64.78,-129.72 76.51,-85.63"/>
<polygon fill="midnightblue" stroke="midnightblue" points="79.95,-86.3 79.28,-75.73 73.21,-84.42 79.95,-86.3"/>
</g>
<!-- Node8 -->
<g id="node8" class="node">
<title>Node8</title>
<g id="a_node8"><a xlink:title=" ">
<polygon fill="white" stroke="#bfbfbf" points="598.5,-280.5 598.5,-299.5 645.5,-299.5 645.5,-280.5 598.5,-280.5"/>
<text text-anchor="middle" x="622" y="-287.5" font-family="Helvetica,sans-Serif" font-size="10.00">deque</text>
</a>
</g>
</g>
<!-- Node5&#45;&gt;Node8 -->
<g id="edge7" class="edge">
<title>Node5&#45;&gt;Node8</title>
<path fill="none" stroke="midnightblue" d="M540.58,-336.32C556,-327.74 579.81,-314.49 597.71,-304.52"/>
<polygon fill="midnightblue" stroke="midnightblue" points="599.42,-307.58 606.45,-299.65 596.01,-301.46 599.42,-307.58"/>
</g>
<!-- Node9 -->
<g id="node9" class="node">
<title>Node9</title>
<g id="a_node9"><a xlink:title=" ">
<polygon fill="white" stroke="#bfbfbf" points="282.5,-0.5 282.5,-19.5 329.5,-19.5 329.5,-0.5 282.5,-0.5"/>
<text text-anchor="middle" x="306" y="-7.5" font-family="Helvetica,sans-Serif" font-size="10.00">vector</text>
</a>
</g>
</g>
<!-- Node5&#45;&gt;Node9 -->
<g id="edge8" class="edge">
<title>Node5&#45;&gt;Node9</title>
<path fill="none" stroke="midnightblue" d="M472.53,-336.46C361.73,-317.72 114,-271.7 114,-235 114,-235 114,-235 114,-177 114,-146.9 114.47,-135.71 133,-112 169.35,-65.49 233.54,-36.26 272.68,-21.83"/>
<polygon fill="midnightblue" stroke="midnightblue" points="274.06,-25.06 282.3,-18.4 271.7,-18.47 274.06,-25.06"/>
</g>
<!-- Node10 -->
<g id="node10" class="node">
<title>Node10</title>
<g id="a_node10"><a xlink:title=" ">
<polygon fill="white" stroke="#bfbfbf" points="1029,-56.5 1029,-75.5 1101,-75.5 1101,-56.5 1029,-56.5"/>
<text text-anchor="middle" x="1065" y="-63.5" font-family="Helvetica,sans-Serif" font-size="10.00">netinet/in.h</text>
</a>
</g>
</g>
<!-- Node5&#45;&gt;Node10 -->
<g id="edge9" class="edge">
<title>Node5&#45;&gt;Node10</title>
<path fill="none" stroke="midnightblue" d="M607.18,-337.84C767.18,-322.78 1105,-285.06 1105,-235 1105,-235 1105,-235 1105,-177 1105,-142.62 1087.53,-105.63 1075.68,-84.5"/>
<polygon fill="midnightblue" stroke="midnightblue" points="1078.62,-82.61 1070.56,-75.73 1072.58,-86.13 1078.62,-82.61"/>
</g>
<!-- Node11 -->
<g id="node11" class="node">
<title>Node11</title>
<g id="a_node11"><a xlink:title=" ">
<polygon fill="white" stroke="#bfbfbf" points="663.5,-280.5 663.5,-299.5 740.5,-299.5 740.5,-280.5 663.5,-280.5"/>
<text text-anchor="middle" x="702" y="-287.5" font-family="Helvetica,sans-Serif" font-size="10.00">sys/socket.h</text>
</a>
</g>
</g>
<!-- Node5&#45;&gt;Node11 -->
<g id="edge10" class="edge">
<title>Node5&#45;&gt;Node11</title>
<path fill="none" stroke="midnightblue" d="M553.05,-336.44C583.08,-327.28 630.91,-312.69 664.24,-302.52"/>
<polygon fill="midnightblue" stroke="midnightblue" points="665.54,-305.78 674.09,-299.52 663.5,-299.09 665.54,-305.78"/>
</g>
<!-- Node12 -->
<g id="node12" class="node">
<title>Node12</title>
<g id="a_node12"><a xlink:title=" ">
<polygon fill="white" stroke="#bfbfbf" points="362.5,-280.5 362.5,-299.5 431.5,-299.5 431.5,-280.5 362.5,-280.5"/>
<text text-anchor="middle" x="397" y="-287.5" font-family="Helvetica,sans-Serif" font-size="10.00">sys/epoll.h</text>
</a>
</g>
</g>
<!-- Node5&#45;&gt;Node12 -->
<g id="edge11" class="edge">
<title>Node5&#45;&gt;Node12</title>
<path fill="none" stroke="midnightblue" d="M504.72,-336.44C483.65,-327.56 450.48,-313.56 426.51,-303.45"/>
<polygon fill="midnightblue" stroke="midnightblue" points="427.76,-300.18 417.19,-299.52 425.04,-306.63 427.76,-300.18"/>
</g>
<!-- Node13 -->
<g id="node13" class="node">
<title>Node13</title>
<g id="a_node13"><a xlink:href="ServerConf_8hpp.html" target="_top" xlink:title="Stores per&#45;server configuration directives. This class encapsulates the configuration for a specific ...">
<polygon fill="white" stroke="black" points="633.5,-168.5 633.5,-187.5 724.5,-187.5 724.5,-168.5 633.5,-168.5"/>
<text text-anchor="middle" x="679" y="-175.5" font-family="Helvetica,sans-Serif" font-size="10.00">ServerConf.hpp</text>
</a>
</g>
</g>
<!-- Node5&#45;&gt;Node13 -->
<g id="edge12" class="edge">
<title>Node5&#45;&gt;Node13</title>
<path fill="none" stroke="midnightblue" d="M511.21,-336.19C500.17,-328.24 485.5,-315.45 479,-300 465.9,-268.86 457.9,-250.38 479,-224 496.77,-201.79 570.32,-189.77 623.07,-183.88"/>
<polygon fill="midnightblue" stroke="midnightblue" points="623.75,-187.32 633.32,-182.78 623,-180.36 623.75,-187.32"/>
</g>
<!-- Node29 -->
<g id="node29" class="node">
<title>Node29</title>
<g id="a_node29"><a xlink:href="Connection_8hpp.html" target="_top" xlink:title="Will be spawned when we accept() a new connection, will handle reading from the socket,...">
<polygon fill="white" stroke="black" points="488,-280.5 488,-299.5 580,-299.5 580,-280.5 488,-280.5"/>
<text text-anchor="middle" x="534" y="-287.5" font-family="Helvetica,sans-Serif" font-size="10.00">Connection.hpp</text>
</a>
</g>
</g>
<!-- Node5&#45;&gt;Node29 -->
<g id="edge43" class="edge">
<title>Node5&#45;&gt;Node29</title>
<path fill="none" stroke="midnightblue" d="M526.49,-336.08C527.68,-328.93 529.39,-318.64 530.88,-309.69"/>
<polygon fill="midnightblue" stroke="midnightblue" points="534.35,-310.19 532.54,-299.75 527.45,-309.04 534.35,-310.19"/>
</g>
<!-- Node13&#45;&gt;Node2 -->
<g id="edge23" class="edge">
<title>Node13&#45;&gt;Node2</title>
<path fill="none" stroke="midnightblue" d="M653.17,-168.44C625.75,-159.36 582.22,-144.94 551.57,-134.78"/>
<polygon fill="midnightblue" stroke="midnightblue" points="552.3,-131.34 541.71,-131.52 550.1,-137.98 552.3,-131.34"/>
</g>
<!-- Node13&#45;&gt;Node6 -->
<g id="edge15" class="edge">
<title>Node13&#45;&gt;Node6</title>
<path fill="none" stroke="midnightblue" d="M663.59,-168.3C640.37,-155.33 594.92,-130.5 555,-112 527.39,-99.2 495.07,-86.33 472.45,-77.65"/>
<polygon fill="midnightblue" stroke="midnightblue" points="473.69,-74.38 463.1,-74.09 471.19,-80.92 473.69,-74.38"/>
</g>
<!-- Node13&#45;&gt;Node9 -->
<g id="edge14" class="edge">
<title>Node13&#45;&gt;Node9</title>
<path fill="none" stroke="midnightblue" d="M668.2,-168.36C651.57,-155.27 618.4,-130.02 588,-112 538.75,-82.81 525.64,-76.01 472,-56 417.54,-35.68 399.88,-35.97 339.81,-20.17"/>
<polygon fill="midnightblue" stroke="midnightblue" points="340.36,-16.7 329.79,-17.49 338.55,-23.46 340.36,-16.7"/>
</g>
<!-- Node13&#45;&gt;Node10 -->
<g id="edge16" class="edge">
<title>Node13&#45;&gt;Node10</title>
<path fill="none" stroke="midnightblue" d="M724.78,-174.48C802.67,-169.58 957.2,-156.96 1005,-132 1025.97,-121.05 1043.43,-99.75 1054.01,-84.51"/>
<polygon fill="midnightblue" stroke="midnightblue" points="1057.07,-86.23 1059.67,-75.96 1051.23,-82.36 1057.07,-86.23"/>
</g>
<!-- Node14 -->
<g id="node14" class="node">
<title>Node14</title>
<g id="a_node14"><a xlink:title=" ">
<polygon fill="white" stroke="#bfbfbf" points="928,-0.5 928,-19.5 972,-19.5 972,-0.5 928,-0.5"/>
<text text-anchor="middle" x="950" y="-7.5" font-family="Helvetica,sans-Serif" font-size="10.00">string</text>
</a>
</g>
</g>
<!-- Node13&#45;&gt;Node14 -->
<g id="edge13" class="edge">
<title>Node13&#45;&gt;Node14</title>
<path fill="none" stroke="midnightblue" d="M724.55,-176.91C798.77,-175.7 940.66,-168.52 972,-132 997.28,-102.55 975.56,-53.91 960.85,-28.19"/>
<polygon fill="midnightblue" stroke="midnightblue" points="963.81,-26.32 955.67,-19.54 957.8,-29.92 963.81,-26.32"/>
</g>
<!-- Node15 -->
<g id="node15" class="node">
<title>Node15</title>
<g id="a_node15"><a xlink:href="LocationConf_8hpp.html" target="_top" xlink:title="Stores per&#45;route configuration directives. This class encapsulates the configuration for a specific l...">
<polygon fill="white" stroke="black" points="861.5,-112.5 861.5,-131.5 962.5,-131.5 962.5,-112.5 861.5,-112.5"/>
<text text-anchor="middle" x="912" y="-119.5" font-family="Helvetica,sans-Serif" font-size="10.00">LocationConf.hpp</text>
</a>
</g>
</g>
<!-- Node13&#45;&gt;Node15 -->
<g id="edge17" class="edge">
<title>Node13&#45;&gt;Node15</title>
<path fill="none" stroke="midnightblue" d="M715.92,-168.44C756.4,-159.06 821.42,-143.99 865.38,-133.8"/>
<polygon fill="midnightblue" stroke="midnightblue" points="866.3,-137.18 875.25,-131.52 864.72,-130.36 866.3,-137.18"/>
</g>
<!-- Node17 -->
<g id="node17" class="node">
<title>Node17</title>
<g id="a_node17"><a xlink:title=" ">
<polygon fill="white" stroke="#bfbfbf" points="850,-0.5 850,-19.5 900,-19.5 900,-0.5 850,-0.5"/>
<text text-anchor="middle" x="875" y="-7.5" font-family="Helvetica,sans-Serif" font-size="10.00">cstring</text>
</a>
</g>
</g>
<!-- Node13&#45;&gt;Node17 -->
<g id="edge22" class="edge">
<title>Node13&#45;&gt;Node17</title>
<path fill="none" stroke="midnightblue" d="M688.25,-168.43C697.95,-159.41 713.62,-144.79 727,-132 761.99,-98.56 767.12,-86.13 805,-56 819.42,-44.53 836.85,-33.32 850.71,-24.95"/>
<polygon fill="midnightblue" stroke="midnightblue" points="852.84,-27.76 859.66,-19.65 849.27,-21.74 852.84,-27.76"/>
</g>
<!-- Node18 -->
<g id="node18" class="node">
<title>Node18</title>
<g id="a_node18"><a xlink:title=" ">
<polygon fill="white" stroke="#bfbfbf" points="774.5,-112.5 774.5,-131.5 843.5,-131.5 843.5,-112.5 774.5,-112.5"/>
<text text-anchor="middle" x="809" y="-119.5" font-family="Helvetica,sans-Serif" font-size="10.00">arpa/inet.h</text>
</a>
</g>
</g>
<!-- Node13&#45;&gt;Node18 -->
<g id="edge24" class="edge">
<title>Node13&#45;&gt;Node18</title>
<path fill="none" stroke="midnightblue" d="M699.6,-168.44C720.99,-159.56 754.68,-145.56 779.02,-135.45"/>
<polygon fill="midnightblue" stroke="midnightblue" points="780.61,-138.58 788.5,-131.52 777.92,-132.12 780.61,-138.58"/>
</g>
<!-- Node19 -->
<g id="node19" class="node">
<title>Node19</title>
<g id="a_node19"><a xlink:href="Request_8hpp.html" target="_top" xlink:title="Parses and stores the entire HTTP request entity (headers, body). Utilizes a State Machine to handle ...">
<polygon fill="white" stroke="black" points="640.5,-112.5 640.5,-131.5 717.5,-131.5 717.5,-112.5 640.5,-112.5"/>
<text text-anchor="middle" x="679" y="-119.5" font-family="Helvetica,sans-Serif" font-size="10.00">Request.hpp</text>
</a>
</g>
</g>
<!-- Node13&#45;&gt;Node19 -->
<g id="edge25" class="edge">
<title>Node13&#45;&gt;Node19</title>
<path fill="none" stroke="midnightblue" d="M679,-168.08C679,-161.01 679,-150.86 679,-141.99"/>
<polygon fill="midnightblue" stroke="midnightblue" points="682.5,-141.75 679,-131.75 675.5,-141.75 682.5,-141.75"/>
</g>
<!-- Node15&#45;&gt;Node6 -->
<g id="edge19" class="edge">
<title>Node15&#45;&gt;Node6</title>
<path fill="none" stroke="midnightblue" d="M861.49,-113.15C858.62,-112.75 855.77,-112.36 853,-112 711.1,-93.38 540.8,-76.34 473.47,-69.82"/>
<polygon fill="midnightblue" stroke="midnightblue" points="473.49,-66.3 463.2,-68.82 472.82,-73.27 473.49,-66.3"/>
</g>
<!-- Node15&#45;&gt;Node14 -->
<g id="edge18" class="edge">
<title>Node15&#45;&gt;Node14</title>
<path fill="none" stroke="midnightblue" d="M919.55,-112.38C926.62,-103.79 936.84,-89.91 942,-76 947.51,-61.16 949.39,-43.24 949.96,-29.97"/>
<polygon fill="midnightblue" stroke="midnightblue" points="953.47,-29.79 950.19,-19.71 946.47,-29.63 953.47,-29.79"/>
</g>
<!-- Node16 -->
<g id="node16" class="node">
<title>Node16</title>
<g id="a_node16"><a xlink:href="AllowedMethods_8hpp.html" target="_top" xlink:title=" ">
<polygon fill="white" stroke="black" points="813.5,-56.5 813.5,-75.5 932.5,-75.5 932.5,-56.5 813.5,-56.5"/>
<text text-anchor="middle" x="873" y="-63.5" font-family="Helvetica,sans-Serif" font-size="10.00">AllowedMethods.hpp</text>
</a>
</g>
</g>
<!-- Node15&#45;&gt;Node16 -->
<g id="edge20" class="edge">
<title>Node15&#45;&gt;Node16</title>
<path fill="none" stroke="midnightblue" d="M905.56,-112.08C900.05,-104.46 891.97,-93.26 885.24,-83.94"/>
<polygon fill="midnightblue" stroke="midnightblue" points="888.01,-81.81 879.32,-75.75 882.34,-85.91 888.01,-81.81"/>
</g>
<!-- Node16&#45;&gt;Node14 -->
<g id="edge21" class="edge">
<title>Node16&#45;&gt;Node14</title>
<path fill="none" stroke="midnightblue" d="M885.37,-56.32C897.16,-48.06 915.13,-35.45 929.14,-25.63"/>
<polygon fill="midnightblue" stroke="midnightblue" points="931.48,-28.26 937.66,-19.65 927.46,-22.53 931.48,-28.26"/>
</g>
<!-- Node19&#45;&gt;Node6 -->
<g id="edge27" class="edge">
<title>Node19&#45;&gt;Node6</title>
<path fill="none" stroke="midnightblue" d="M641.76,-112.44C594.99,-101.7 515.73,-83.48 473.13,-73.69"/>
<polygon fill="midnightblue" stroke="midnightblue" points="473.67,-70.23 463.14,-71.4 472.1,-77.05 473.67,-70.23"/>
</g>
<!-- Node19&#45;&gt;Node10 -->
<g id="edge29" class="edge">
<title>Node19&#45;&gt;Node10</title>
<path fill="none" stroke="midnightblue" d="M717.78,-115.58C789.26,-105.57 941.52,-84.27 1018.45,-73.51"/>
<polygon fill="midnightblue" stroke="midnightblue" points="1019.37,-76.92 1028.79,-72.07 1018.4,-69.98 1019.37,-76.92"/>
</g>
<!-- Node19&#45;&gt;Node14 -->
<g id="edge26" class="edge">
<title>Node19&#45;&gt;Node14</title>
<path fill="none" stroke="midnightblue" d="M693.72,-112.32C716.84,-98.95 763.31,-73.07 805,-56 842.97,-40.46 888.37,-27.18 918.13,-19.16"/>
<polygon fill="midnightblue" stroke="midnightblue" points="919.2,-22.49 927.96,-16.54 917.4,-15.73 919.2,-22.49"/>
</g>
<!-- Node19&#45;&gt;Node16 -->
<g id="edge30" class="edge">
<title>Node19&#45;&gt;Node16</title>
<path fill="none" stroke="midnightblue" d="M709.74,-112.44C742.94,-103.2 795.99,-88.44 832.56,-78.26"/>
<polygon fill="midnightblue" stroke="midnightblue" points="833.71,-81.57 842.4,-75.52 831.83,-74.83 833.71,-81.57"/>
</g>
<!-- Node20 -->
<g id="node20" class="node">
<title>Node20</title>
<g id="a_node20"><a xlink:title=" ">
<polygon fill="white" stroke="#bfbfbf" points="90,-0.5 90,-19.5 162,-19.5 162,-0.5 90,-0.5"/>
<text text-anchor="middle" x="126" y="-7.5" font-family="Helvetica,sans-Serif" font-size="10.00">sys/types.h</text>
</a>
</g>
</g>
<!-- Node19&#45;&gt;Node20 -->
<g id="edge28" class="edge">
<title>Node19&#45;&gt;Node20</title>
<path fill="none" stroke="midnightblue" d="M656.38,-112.46C618.69,-98.55 540.42,-71.07 472,-56 366.15,-32.69 239.24,-19.98 172.42,-14.44"/>
<polygon fill="midnightblue" stroke="midnightblue" points="172.47,-10.93 162.22,-13.61 171.91,-17.91 172.47,-10.93"/>
</g>
<!-- Node21 -->
<g id="node21" class="node">
<title>Node21</title>
<g id="a_node21"><a xlink:href="DataStore_8hpp.html" target="_top" xlink:title="A DataStore is a flexible data structure, it is either a RAM buffer or a file on disk,...">
<polygon fill="white" stroke="black" points="557,-56.5 557,-75.5 643,-75.5 643,-56.5 557,-56.5"/>
<text text-anchor="middle" x="600" y="-63.5" font-family="Helvetica,sans-Serif" font-size="10.00">DataStore.hpp</text>
</a>
</g>
</g>
<!-- Node19&#45;&gt;Node21 -->
<g id="edge31" class="edge">
<title>Node19&#45;&gt;Node21</title>
<path fill="none" stroke="midnightblue" d="M666.31,-112.32C654.1,-103.98 635.42,-91.21 621,-81.35"/>
<polygon fill="midnightblue" stroke="midnightblue" points="622.89,-78.41 612.66,-75.65 618.94,-84.19 622.89,-78.41"/>
</g>
<!-- Node21&#45;&gt;Node9 -->
<g id="edge33" class="edge">
<title>Node21&#45;&gt;Node9</title>
<path fill="none" stroke="midnightblue" d="M556.9,-58.08C497.84,-48.52 393.81,-31.37 339.83,-19.96"/>
<polygon fill="midnightblue" stroke="midnightblue" points="340.24,-16.47 329.73,-17.76 338.75,-23.31 340.24,-16.47"/>
</g>
<!-- Node21&#45;&gt;Node14 -->
<g id="edge32" class="edge">
<title>Node21&#45;&gt;Node14</title>
<path fill="none" stroke="midnightblue" d="M643.25,-58.1C647.89,-57.38 652.54,-56.67 657,-56 768.88,-39.18 797.67,-40.14 909,-20 911.89,-19.48 914.89,-18.9 917.89,-18.29"/>
<polygon fill="midnightblue" stroke="midnightblue" points="918.87,-21.66 927.93,-16.16 917.42,-14.81 918.87,-21.66"/>
</g>
<!-- Node21&#45;&gt;Node17 -->
<g id="edge41" class="edge">
<title>Node21&#45;&gt;Node17</title>
<path fill="none" stroke="midnightblue" d="M643.3,-57.91C689.61,-50.11 765.41,-36.7 839.79,-20.14"/>
<polygon fill="midnightblue" stroke="midnightblue" points="840.81,-23.5 849.8,-17.89 839.28,-16.67 840.81,-23.5"/>
</g>
<!-- Node21&#45;&gt;Node20 -->
<g id="edge34" class="edge">
<title>Node21&#45;&gt;Node20</title>
<path fill="none" stroke="midnightblue" d="M556.77,-57.95C552.13,-57.26 547.47,-56.59 543,-56 408.74,-38.17 249.44,-22.49 172.37,-15.25"/>
<polygon fill="midnightblue" stroke="midnightblue" points="172.33,-11.74 162.05,-14.29 171.68,-18.7 172.33,-11.74"/>
</g>
<!-- Node22 -->
<g id="node22" class="node">
<title>Node22</title>
<g id="a_node22"><a xlink:title=" ">
<polygon fill="white" stroke="#bfbfbf" points="348,-0.5 348,-19.5 404,-19.5 404,-0.5 348,-0.5"/>
<text text-anchor="middle" x="376" y="-7.5" font-family="Helvetica,sans-Serif" font-size="10.00">unistd.h</text>
</a>
</g>
</g>
<!-- Node21&#45;&gt;Node22 -->
<g id="edge35" class="edge">
<title>Node21&#45;&gt;Node22</title>
<path fill="none" stroke="midnightblue" d="M564.51,-56.44C523.48,-46.55 456.21,-30.34 414.11,-20.19"/>
<polygon fill="midnightblue" stroke="midnightblue" points="414.78,-16.75 404.23,-17.81 413.14,-23.55 414.78,-16.75"/>
</g>
<!-- Node23 -->
<g id="node23" class="node">
<title>Node23</title>
<g id="a_node23"><a xlink:title=" ">
<polygon fill="white" stroke="#bfbfbf" points="715.5,-0.5 715.5,-19.5 766.5,-19.5 766.5,-0.5 715.5,-0.5"/>
<text text-anchor="middle" x="741" y="-7.5" font-family="Helvetica,sans-Serif" font-size="10.00">errno.h</text>
</a>
</g>
</g>
<!-- Node21&#45;&gt;Node23 -->
<g id="edge36" class="edge">
<title>Node21&#45;&gt;Node23</title>
<path fill="none" stroke="midnightblue" d="M622.34,-56.44C645.75,-47.48 682.74,-33.31 709.19,-23.18"/>
<polygon fill="midnightblue" stroke="midnightblue" points="710.68,-26.36 718.76,-19.52 708.17,-19.82 710.68,-26.36"/>
</g>
<!-- Node24 -->
<g id="node24" class="node">
<title>Node24</title>
<g id="a_node24"><a xlink:title=" ">
<polygon fill="white" stroke="#bfbfbf" points="784.5,-0.5 784.5,-19.5 831.5,-19.5 831.5,-0.5 784.5,-0.5"/>
<text text-anchor="middle" x="808" y="-7.5" font-family="Helvetica,sans-Serif" font-size="10.00">fcntl.h</text>
</a>
</g>
</g>
<!-- Node21&#45;&gt;Node24 -->
<g id="edge37" class="edge">
<title>Node21&#45;&gt;Node24</title>
<path fill="none" stroke="midnightblue" d="M634.46,-56.45C667.98,-48.07 720.57,-34.78 774.52,-20.36"/>
<polygon fill="midnightblue" stroke="midnightblue" points="775.5,-23.72 784.25,-17.75 773.69,-16.96 775.5,-23.72"/>
</g>
<!-- Node25 -->
<g id="node25" class="node">
<title>Node25</title>
<g id="a_node25"><a xlink:title=" ">
<polygon fill="white" stroke="#bfbfbf" points="422.5,-0.5 422.5,-19.5 475.5,-19.5 475.5,-0.5 422.5,-0.5"/>
<text text-anchor="middle" x="449" y="-7.5" font-family="Helvetica,sans-Serif" font-size="10.00">stdlib.h</text>
</a>
</g>
</g>
<!-- Node21&#45;&gt;Node25 -->
<g id="edge38" class="edge">
<title>Node21&#45;&gt;Node25</title>
<path fill="none" stroke="midnightblue" d="M576.07,-56.44C550.78,-47.4 510.7,-33.06 482.32,-22.92"/>
<polygon fill="midnightblue" stroke="midnightblue" points="483.41,-19.59 472.81,-19.52 481.05,-26.18 483.41,-19.59"/>
</g>
<!-- Node26 -->
<g id="node26" class="node">
<title>Node26</title>
<g id="a_node26"><a xlink:title=" ">
<polygon fill="white" stroke="#bfbfbf" points="494,-0.5 494,-19.5 550,-19.5 550,-0.5 494,-0.5"/>
<text text-anchor="middle" x="522" y="-7.5" font-family="Helvetica,sans-Serif" font-size="10.00">sstream</text>
</a>
</g>
</g>
<!-- Node21&#45;&gt;Node26 -->
<g id="edge39" class="edge">
<title>Node21&#45;&gt;Node26</title>
<path fill="none" stroke="midnightblue" d="M587.47,-56.32C575.41,-47.98 556.97,-35.21 542.73,-25.35"/>
<polygon fill="midnightblue" stroke="midnightblue" points="544.72,-22.47 534.5,-19.65 540.73,-28.22 544.72,-22.47"/>
</g>
<!-- Node27 -->
<g id="node27" class="node">
<title>Node27</title>
<g id="a_node27"><a xlink:title=" ">
<polygon fill="white" stroke="#bfbfbf" points="568,-0.5 568,-19.5 632,-19.5 632,-0.5 568,-0.5"/>
<text text-anchor="middle" x="600" y="-7.5" font-family="Helvetica,sans-Serif" font-size="10.00">algorithm</text>
</a>
</g>
</g>
<!-- Node21&#45;&gt;Node27 -->
<g id="edge40" class="edge">
<title>Node21&#45;&gt;Node27</title>
<path fill="none" stroke="midnightblue" d="M600,-56.08C600,-49.01 600,-38.86 600,-29.99"/>
<polygon fill="midnightblue" stroke="midnightblue" points="603.5,-29.75 600,-19.75 596.5,-29.75 603.5,-29.75"/>
</g>
<!-- Node28 -->
<g id="node28" class="node">
<title>Node28</title>
<g id="a_node28"><a xlink:title=" ">
<polygon fill="white" stroke="#bfbfbf" points="650.5,-0.5 650.5,-19.5 697.5,-19.5 697.5,-0.5 650.5,-0.5"/>
<text text-anchor="middle" x="674" y="-7.5" font-family="Helvetica,sans-Serif" font-size="10.00">cerrno</text>
</a>
</g>
</g>
<!-- Node21&#45;&gt;Node28 -->
<g id="edge42" class="edge">
<title>Node21&#45;&gt;Node28</title>
<path fill="none" stroke="midnightblue" d="M611.89,-56.32C623.15,-48.11 640.29,-35.6 653.71,-25.81"/>
<polygon fill="midnightblue" stroke="midnightblue" points="655.88,-28.56 661.89,-19.83 651.75,-22.9 655.88,-28.56"/>
</g>
<!-- Node29&#45;&gt;Node10 -->
<g id="edge46" class="edge">
<title>Node29&#45;&gt;Node10</title>
<path fill="none" stroke="midnightblue" d="M574.14,-280.47C679.25,-257.52 959.3,-192.08 1031,-132 1045.47,-119.88 1054.58,-100 1059.69,-85.42"/>
<polygon fill="midnightblue" stroke="midnightblue" points="1063.14,-86.1 1062.84,-75.51 1056.47,-83.98 1063.14,-86.1"/>
</g>
<!-- Node29&#45;&gt;Node13 -->
<g id="edge48" class="edge">
<title>Node29&#45;&gt;Node13</title>
<path fill="none" stroke="midnightblue" d="M545.38,-280.37C570.05,-261.65 628.71,-217.15 659.45,-193.83"/>
<polygon fill="midnightblue" stroke="midnightblue" points="661.82,-196.42 667.67,-187.59 657.59,-190.85 661.82,-196.42"/>
</g>
<!-- Node29&#45;&gt;Node14 -->
<g id="edge44" class="edge">
<title>Node29&#45;&gt;Node14</title>
<path fill="none" stroke="midnightblue" d="M580.07,-281.21C639.97,-270.95 741.27,-253.16 778,-244 938.46,-203.98 1046.04,-228.5 1110,-76 1131.81,-24.01 1035.25,-13.33 982.45,-11.32"/>
<polygon fill="midnightblue" stroke="midnightblue" points="982.31,-7.81 972.21,-11.02 982.1,-14.81 982.31,-7.81"/>
</g>
<!-- Node29&#45;&gt;Node15 -->
<g id="edge49" class="edge">
<title>Node29&#45;&gt;Node15</title>
<path fill="none" stroke="midnightblue" d="M553.53,-280.42C615.74,-253.1 809.53,-168 883.19,-135.65"/>
<polygon fill="midnightblue" stroke="midnightblue" points="884.61,-138.85 892.36,-131.62 881.8,-132.44 884.61,-138.85"/>
</g>
<!-- Node29&#45;&gt;Node19 -->
<g id="edge50" class="edge">
<title>Node29&#45;&gt;Node19</title>
<path fill="none" stroke="midnightblue" d="M539.55,-280.25C552.9,-259.57 588.4,-206.47 625,-168 635.38,-157.09 648.31,-146.23 658.91,-137.92"/>
<polygon fill="midnightblue" stroke="midnightblue" points="661.36,-140.46 667.16,-131.59 657.1,-134.9 661.36,-140.46"/>
</g>
<!-- Node29&#45;&gt;Node20 -->
<g id="edge47" class="edge">
<title>Node29&#45;&gt;Node20</title>
<path fill="none" stroke="midnightblue" d="M487.55,-284.34C357.63,-270.68 0,-228.58 0,-179 0,-179 0,-179 0,-121 0,-71.95 54.85,-39.74 92.17,-23.5"/>
<polygon fill="midnightblue" stroke="midnightblue" points="93.82,-26.61 101.71,-19.53 91.13,-20.14 93.82,-26.61"/>
</g>
<!-- Node30 -->
<g id="node30" class="node">
<title>Node30</title>
<g id="a_node30"><a xlink:title=" ">
<polygon fill="white" stroke="#bfbfbf" points="488,-224.5 488,-243.5 532,-243.5 532,-224.5 488,-224.5"/>
<text text-anchor="middle" x="510" y="-231.5" font-family="Helvetica,sans-Serif" font-size="10.00">ctime</text>
</a>
</g>
</g>
<!-- Node29&#45;&gt;Node30 -->
<g id="edge45" class="edge">
<title>Node29&#45;&gt;Node30</title>
<path fill="none" stroke="midnightblue" d="M530.04,-280.08C526.79,-272.77 522.08,-262.18 518.05,-253.1"/>
<polygon fill="midnightblue" stroke="midnightblue" points="521.15,-251.47 513.89,-243.75 514.75,-254.31 521.15,-251.47"/>
</g>
<!-- Node31 -->
<g id="node31" class="node">
<title>Node31</title>
<g id="a_node31"><a xlink:href="Response_8hpp.html" target="_top" xlink:title="Formulates the HTTP response and manages non&#45;blocking data transmission.">
<polygon fill="white" stroke="black" points="339.5,-224.5 339.5,-243.5 424.5,-243.5 424.5,-224.5 339.5,-224.5"/>
<text text-anchor="middle" x="382" y="-231.5" font-family="Helvetica,sans-Serif" font-size="10.00">Response.hpp</text>
</a>
</g>
</g>
<!-- Node29&#45;&gt;Node31 -->
<g id="edge51" class="edge">
<title>Node29&#45;&gt;Node31</title>
<path fill="none" stroke="midnightblue" d="M509.92,-280.44C484.46,-271.4 444.11,-257.06 415.54,-246.92"/>
<polygon fill="midnightblue" stroke="midnightblue" points="416.57,-243.57 405.97,-243.52 414.22,-250.16 416.57,-243.57"/>
</g>
<!-- Node31&#45;&gt;Node6 -->
<g id="edge54" class="edge">
<title>Node31&#45;&gt;Node6</title>
<path fill="none" stroke="midnightblue" d="M377.71,-224.38C368,-203.53 346.74,-149.29 368,-112 378.09,-94.29 398.19,-82.84 415.19,-75.93"/>
<polygon fill="midnightblue" stroke="midnightblue" points="416.59,-79.14 424.74,-72.36 414.14,-72.58 416.59,-79.14"/>
</g>
<!-- Node31&#45;&gt;Node9 -->
<g id="edge55" class="edge">
<title>Node31&#45;&gt;Node9</title>
<path fill="none" stroke="midnightblue" d="M376.4,-224.33C370.88,-215.48 362.49,-201.2 357,-188 333.84,-132.26 317.11,-62.5 309.91,-29.69"/>
<polygon fill="midnightblue" stroke="midnightblue" points="313.29,-28.75 307.77,-19.71 306.45,-30.22 313.29,-28.75"/>
</g>
<!-- Node31&#45;&gt;Node13 -->
<g id="edge57" class="edge">
<title>Node31&#45;&gt;Node13</title>
<path fill="none" stroke="midnightblue" d="M424.55,-225.26C476.76,-215.77 565.41,-199.65 623.07,-189.17"/>
<polygon fill="midnightblue" stroke="midnightblue" points="623.9,-192.58 633.11,-187.34 622.65,-185.69 623.9,-192.58"/>
</g>
<!-- Node31&#45;&gt;Node14 -->
<g id="edge52" class="edge">
<title>Node31&#45;&gt;Node14</title>
<path fill="none" stroke="midnightblue" d="M388.37,-224.14C407.65,-197.44 464.79,-119.16 477,-112 565.86,-59.87 606.24,-101.72 706,-76 731.19,-69.51 736.09,-63.47 761,-56 790.15,-47.26 872.11,-28.48 917.95,-18.16"/>
<polygon fill="midnightblue" stroke="midnightblue" points="918.97,-21.52 927.96,-15.91 917.43,-14.69 918.97,-21.52"/>
</g>
<!-- Node31&#45;&gt;Node19 -->
<g id="edge58" class="edge">
<title>Node31&#45;&gt;Node19</title>
<path fill="none" stroke="midnightblue" d="M402.58,-224.45C433.53,-211.69 493.96,-187.1 546,-168 578.47,-156.08 615.8,-143.55 642.63,-134.75"/>
<polygon fill="midnightblue" stroke="midnightblue" points="643.95,-138 652.36,-131.57 641.77,-131.35 643.95,-138"/>
</g>
<!-- Node31&#45;&gt;Node20 -->
<g id="edge53" class="edge">
<title>Node31&#45;&gt;Node20</title>
<path fill="none" stroke="midnightblue" d="M339.34,-228.31C264.11,-217.37 110.77,-182.4 57,-76 45.91,-54.05 71.27,-35.58 94.31,-24.01"/>
<polygon fill="midnightblue" stroke="midnightblue" points="96.05,-27.06 103.6,-19.62 93.06,-20.73 96.05,-27.06"/>
</g>
<!-- Node31&#45;&gt;Node21 -->
<g id="edge56" class="edge">
<title>Node31&#45;&gt;Node21</title>
<path fill="none" stroke="midnightblue" d="M383.88,-224.49C389.19,-202.43 406.47,-142.92 444,-112 472.96,-88.15 513.97,-76.93 546.68,-71.66"/>
<polygon fill="midnightblue" stroke="midnightblue" points="547.59,-75.07 556.98,-70.15 546.58,-68.14 547.59,-75.07"/>
</g>
<!-- Node32 -->
<g id="node32" class="node">
<title>Node32</title>
<g id="a_node32"><a xlink:href="CGIManager_8hpp.html" target="_top" xlink:title="Declares the CGIManager class responsible for executing CGI scripts and redirecting their input/outpu...">
<polygon fill="white" stroke="black" points="142.5,-112.5 142.5,-131.5 239.5,-131.5 239.5,-112.5 142.5,-112.5"/>
<text text-anchor="middle" x="191" y="-119.5" font-family="Helvetica,sans-Serif" font-size="10.00">CGIManager.hpp</text>
</a>
</g>
</g>
<!-- Node31&#45;&gt;Node32 -->
<g id="edge59" class="edge">
<title>Node31&#45;&gt;Node32</title>
<path fill="none" stroke="midnightblue" d="M363.42,-224.43C345.01,-215.78 316.14,-201.75 292,-188 263.56,-171.8 232.03,-151.03 211.88,-137.38"/>
<polygon fill="midnightblue" stroke="midnightblue" points="213.72,-134.4 203.48,-131.66 209.77,-140.18 213.72,-134.4"/>
</g>
<!-- Node32&#45;&gt;Node6 -->
<g id="edge62" class="edge">
<title>Node32&#45;&gt;Node6</title>
<path fill="none" stroke="midnightblue" d="M237.12,-112.46C281.76,-103.99 351.27,-90.24 411,-76 412.27,-75.7 413.56,-75.38 414.86,-75.06"/>
<polygon fill="midnightblue" stroke="midnightblue" points="416.07,-78.36 424.86,-72.44 414.3,-71.59 416.07,-78.36"/>
</g>
<!-- Node32&#45;&gt;Node7 -->
<g id="edge63" class="edge">
<title>Node32&#45;&gt;Node7</title>
<path fill="none" stroke="midnightblue" d="M173.49,-112.32C155.51,-103.42 127.37,-89.48 107.05,-79.41"/>
<polygon fill="midnightblue" stroke="midnightblue" points="108.56,-76.25 98.05,-74.95 105.46,-82.53 108.56,-76.25"/>
</g>
<!-- Node32&#45;&gt;Node9 -->
<g id="edge60" class="edge">
<title>Node32&#45;&gt;Node9</title>
<path fill="none" stroke="midnightblue" d="M200.02,-112.37C219.34,-93.89 264.92,-50.29 289.54,-26.74"/>
<polygon fill="midnightblue" stroke="midnightblue" points="292.21,-29.03 297.02,-19.59 287.37,-23.97 292.21,-29.03"/>
</g>
<!-- Node32&#45;&gt;Node14 -->
<g id="edge61" class="edge">
<title>Node32&#45;&gt;Node14</title>
<path fill="none" stroke="midnightblue" d="M239.76,-118.57C324.22,-113.83 502.99,-101.53 652,-76 688.55,-69.74 696.83,-64.16 733,-56 810.88,-38.43 830.89,-36.56 909,-20 911.87,-19.39 914.86,-18.75 917.85,-18.1"/>
<polygon fill="midnightblue" stroke="midnightblue" points="918.86,-21.47 927.88,-15.92 917.37,-14.63 918.86,-21.47"/>
</g>
<!-- Node32&#45;&gt;Node20 -->
<g id="edge65" class="edge">
<title>Node32&#45;&gt;Node20</title>
<path fill="none" stroke="midnightblue" d="M185.9,-112.37C175.22,-94.3 150.33,-52.18 136.23,-28.31"/>
<polygon fill="midnightblue" stroke="midnightblue" points="139.18,-26.42 131.08,-19.59 133.15,-29.98 139.18,-26.42"/>
</g>
<!-- Node32&#45;&gt;Node22 -->
<g id="edge64" class="edge">
<title>Node32&#45;&gt;Node22</title>
<path fill="none" stroke="midnightblue" d="M205.52,-112.37C237.4,-93.41 313.77,-48 352.55,-24.94"/>
<polygon fill="midnightblue" stroke="midnightblue" points="354.74,-27.71 361.55,-19.59 351.17,-21.69 354.74,-27.71"/>
</g>
<!-- Node33&#45;&gt;Node14 -->
<g id="edge68" class="edge">
<title>Node33&#45;&gt;Node14</title>
<path fill="none" stroke="midnightblue" d="M1283.55,-168.28C1275.06,-159.38 1261.72,-145.07 1251,-132 1224.39,-99.56 1230.58,-78.24 1195,-56 1159.96,-34.1 1040.7,-19.82 982.49,-13.99"/>
<polygon fill="midnightblue" stroke="midnightblue" points="982.66,-10.49 972.37,-13 981.98,-17.45 982.66,-10.49"/>
</g>
<!-- Node34 -->
<g id="node34" class="node">
<title>Node34</title>
<g id="a_node34"><a xlink:title=" ">
<polygon fill="white" stroke="#bfbfbf" points="1259.5,-112.5 1259.5,-131.5 1324.5,-131.5 1324.5,-112.5 1259.5,-112.5"/>
<text text-anchor="middle" x="1292" y="-119.5" font-family="Helvetica,sans-Serif" font-size="10.00">exception</text>
</a>
</g>
</g>
<!-- Node33&#45;&gt;Node34 -->
<g id="edge67" class="edge">
<title>Node33&#45;&gt;Node34</title>
<path fill="none" stroke="midnightblue" d="M1292,-168.08C1292,-161.01 1292,-150.86 1292,-141.99"/>
<polygon fill="midnightblue" stroke="midnightblue" points="1295.5,-141.75 1292,-131.75 1288.5,-141.75 1295.5,-141.75"/>
</g>
<!-- Node35&#45;&gt;Node9 -->
<g id="edge71" class="edge">
<title>Node35&#45;&gt;Node9</title>
<path fill="none" stroke="midnightblue" d="M1132.92,-233.97C1020.92,-233.91 804.09,-227.93 625,-188 556.36,-172.69 539.09,-165.02 477,-132 417.38,-100.29 354.29,-50.93 324.13,-26.2"/>
<polygon fill="midnightblue" stroke="midnightblue" points="326.13,-23.31 316.19,-19.64 321.67,-28.71 326.13,-23.31"/>
</g>
<!-- Node35&#45;&gt;Node13 -->
<g id="edge72" class="edge">
<title>Node35&#45;&gt;Node13</title>
<path fill="none" stroke="midnightblue" d="M1132.77,-225.32C1025.3,-214.35 830.27,-194.44 734.75,-184.69"/>
<polygon fill="midnightblue" stroke="midnightblue" points="735.02,-181.2 724.71,-183.67 734.31,-188.16 735.02,-181.2"/>
</g>
<!-- Node35&#45;&gt;Node14 -->
<g id="edge70" class="edge">
<title>Node35&#45;&gt;Node14</title>
<path fill="none" stroke="midnightblue" d="M1206.02,-224.2C1198.28,-190.1 1169.84,-68.02 1157,-56 1132,-32.61 1033.88,-19.44 982.22,-14"/>
<polygon fill="midnightblue" stroke="midnightblue" points="982.55,-10.51 972.24,-12.98 981.84,-17.48 982.55,-10.51"/>
</g>
<!-- Node35&#45;&gt;Node33 -->
<g id="edge73" class="edge">
<title>Node35&#45;&gt;Node33</title>
<path fill="none" stroke="midnightblue" d="M1221.5,-224.32C1234.6,-215.9 1254.71,-202.97 1270.11,-193.07"/>
<polygon fill="midnightblue" stroke="midnightblue" points="1272.02,-196.01 1278.54,-187.65 1268.23,-190.12 1272.02,-196.01"/>
</g>
</g>
</svg>
